<svg xmlns="http://www.w3.org/2000/svg" xmlns:xlink="http://www.w3.org/1999/xlink" width="500" zoomAndPan="magnify" viewBox="0 0 375 374.999991" height="500" preserveAspectRatio="xMidYMid meet" version="1.0">
  <defs>
    <g />
    <clipPath id="a8df6bad1c">
      <path d="M 79.355469 97.300781 L 295.355469 97.300781 L 295.355469 188 L 79.355469 188 Z M 79.355469 97.300781 " clip-rule="nonzero" />
    </clipPath>
    <clipPath id="645d80b3e5">
      <path d="M 187.488281 97.300781 L 182.753906 147.234375 L 174.867188 120.949219 L 178.992188 147.234375 L 154.21875 105.9375 L 170.546875 151.359375 L 152.523438 134.28125 L 167.730469 153.984375 L 127.738281 133.144531 L 161.71875 161.113281 L 137.5 158.113281 L 160.078125 165.335938 C 137.917969 167.722656 116.003906 173.015625 94.90625 181.214844 C 94.039062 181.558594 93.179688 181.910156 92.3125 182.265625 C 88.089844 183.988281 83.902344 185.800781 79.730469 187.6875 C 107.527344 180.304688 135.902344 175.824219 164.398438 174.261719 L 164.398438 167.507812 L 157.945312 167.507812 L 161.535156 165.441406 L 165.746094 163.007812 L 187.488281 150.460938 L 209.230469 163.007812 L 213.441406 165.441406 L 217.03125 167.507812 L 210.582031 167.507812 L 210.582031 174.261719 C 239.074219 175.824219 267.4375 180.304688 295.246094 187.6875 C 291.089844 185.800781 286.886719 183.988281 282.675781 182.265625 C 281.808594 181.910156 280.949219 181.566406 280.082031 181.214844 C 258.984375 173.015625 237.070312 167.722656 214.910156 165.335938 L 237.488281 158.113281 L 213.269531 161.113281 L 247.25 133.144531 L 207.269531 153.984375 L 222.476562 134.28125 L 204.453125 151.359375 L 220.78125 105.9375 L 196.007812 147.234375 L 200.132812 120.949219 L 192.246094 147.234375 L 187.511719 97.300781 Z M 187.488281 97.300781 " clip-rule="evenodd" />
    </clipPath>
    <linearGradient x1="124.526799" gradientTransform="matrix(1.071568, 0, 0, 1.071568, 79.742862, 97.300288)" y1="-16.368833" x2="98.49892" gradientUnits="userSpaceOnUse" y2="105.405203" id="696ba71332">
      <stop stop-opacity="1" stop-color="rgb(93.699646%, 42.698669%, 21.598816%)" offset="0" />
      <stop stop-opacity="1" stop-color="rgb(93.699646%, 42.698669%, 21.598816%)" offset="0.25" />
      <stop stop-opacity="1" stop-color="rgb(93.699646%, 42.698669%, 21.598816%)" offset="0.3125" />
      <stop stop-opacity="1" stop-color="rgb(93.699646%, 42.698669%, 21.598816%)" offset="0.328125" />
      <stop stop-opacity="1" stop-color="rgb(93.711853%, 42.770386%, 21.588135%)" offset="0.335938" />
      <stop stop-opacity="1" stop-color="rgb(93.77594%, 43.15033%, 21.533203%)" offset="0.339844" />
      <stop stop-opacity="1" stop-color="rgb(93.82782%, 43.458557%, 21.487427%)" offset="0.34375" />
      <stop stop-opacity="1" stop-color="rgb(93.8797%, 43.766785%, 21.44165%)" offset="0.347656" />
      <stop stop-opacity="1" stop-color="rgb(93.93158%, 44.076538%, 21.395874%)" offset="0.351563" />
      <stop stop-opacity="1" stop-color="rgb(93.983459%, 44.384766%, 21.350098%)" offset="0.355469" />
      <stop stop-opacity="1" stop-color="rgb(94.035339%, 44.692993%, 21.305847%)" offset="0.359375" />
      <stop stop-opacity="1" stop-color="rgb(94.087219%, 45.001221%, 21.260071%)" offset="0.363281" />
      <stop stop-opacity="1" stop-color="rgb(94.140625%, 45.310974%, 21.214294%)" offset="0.367188" />
      <stop stop-opacity="1" stop-color="rgb(94.192505%, 45.619202%, 21.168518%)" offset="0.371094" />
      <stop stop-opacity="1" stop-color="rgb(94.244385%, 45.927429%, 21.122742%)" offset="0.375" />
      <stop stop-opacity="1" stop-color="rgb(94.296265%, 46.235657%, 21.076965%)" offset="0.378906" />
      <stop stop-opacity="1" stop-color="rgb(94.348145%, 46.543884%, 21.032715%)" offset="0.382813" />
      <stop stop-opacity="1" stop-color="rgb(94.400024%, 46.852112%, 20.986938%)" offset="0.386719" />
      <stop stop-opacity="1" stop-color="rgb(94.45343%, 47.161865%, 20.941162%)" offset="0.390625" />
      <stop stop-opacity="1" stop-color="rgb(94.50531%, 47.470093%, 20.895386%)" offset="0.394531" />
      <stop stop-opacity="1" stop-color="rgb(94.55719%, 47.77832%, 20.849609%)" offset="0.398438" />
      <stop stop-opacity="1" stop-color="rgb(94.60907%, 48.086548%, 20.803833%)" offset="0.402344" />
      <stop stop-opacity="1" stop-color="rgb(94.66095%, 48.396301%, 20.759583%)" offset="0.40625" />
      <stop stop-opacity="1" stop-color="rgb(94.71283%, 48.704529%, 20.713806%)" offset="0.410156" />
      <stop stop-opacity="1" stop-color="rgb(94.766235%, 49.012756%, 20.66803%)" offset="0.414063" />
      <stop stop-opacity="1" stop-color="rgb(94.818115%, 49.320984%, 20.622253%)" offset="0.417969" />
      <stop stop-opacity="1" stop-color="rgb(94.869995%, 49.630737%, 20.576477%)" offset="0.421875" />
      <stop stop-opacity="1" stop-color="rgb(94.921875%, 49.938965%, 20.530701%)" offset="0.425781" />
      <stop stop-opacity="1" stop-color="rgb(94.973755%, 50.247192%, 20.48645%)" offset="0.429688" />
      <stop stop-opacity="1" stop-color="rgb(95.025635%, 50.55542%, 20.440674%)" offset="0.433594" />
      <stop stop-opacity="1" stop-color="rgb(95.079041%, 50.865173%, 20.394897%)" offset="0.4375" />
      <stop stop-opacity="1" stop-color="rgb(95.13092%, 51.173401%, 20.349121%)" offset="0.441406" />
      <stop stop-opacity="1" stop-color="rgb(95.1828%, 51.481628%, 20.304871%)" offset="0.445313" />
      <stop stop-opacity="1" stop-color="rgb(95.23468%, 51.789856%, 20.259094%)" offset="0.449219" />
      <stop stop-opacity="1" stop-color="rgb(95.28656%, 52.099609%, 20.213318%)" offset="0.453125" />
      <stop stop-opacity="1" stop-color="rgb(95.33844%, 52.407837%, 20.167542%)" offset="0.457031" />
      <stop stop-opacity="1" stop-color="rgb(95.39032%, 52.716064%, 20.121765%)" offset="0.460938" />
      <stop stop-opacity="1" stop-color="rgb(95.4422%, 53.024292%, 20.075989%)" offset="0.464844" />
      <stop stop-opacity="1" stop-color="rgb(95.495605%, 53.33252%, 20.031738%)" offset="0.46875" />
      <stop stop-opacity="1" stop-color="rgb(95.547485%, 53.640747%, 19.985962%)" offset="0.472656" />
      <stop stop-opacity="1" stop-color="rgb(95.599365%, 53.9505%, 19.940186%)" offset="0.476563" />
      <stop stop-opacity="1" stop-color="rgb(95.651245%, 54.258728%, 19.894409%)" offset="0.480469" />
      <stop stop-opacity="1" stop-color="rgb(95.703125%, 54.566956%, 19.848633%)" offset="0.484375" />
      <stop stop-opacity="1" stop-color="rgb(95.755005%, 54.875183%, 19.802856%)" offset="0.488281" />
      <stop stop-opacity="1" stop-color="rgb(95.808411%, 55.184937%, 19.758606%)" offset="0.492188" />
      <stop stop-opacity="1" stop-color="rgb(95.860291%, 55.493164%, 19.71283%)" offset="0.496094" />
      <stop stop-opacity="1" stop-color="rgb(95.91217%, 55.801392%, 19.667053%)" offset="0.5" />
      <stop stop-opacity="1" stop-color="rgb(95.96405%, 56.109619%, 19.621277%)" offset="0.503906" />
      <stop stop-opacity="1" stop-color="rgb(96.01593%, 56.419373%, 19.5755%)" offset="0.507812" />
      <stop stop-opacity="1" stop-color="rgb(96.06781%, 56.7276%, 19.529724%)" offset="0.511719" />
      <stop stop-opacity="1" stop-color="rgb(96.121216%, 57.035828%, 19.485474%)" offset="0.515625" />
      <stop stop-opacity="1" stop-color="rgb(96.173096%, 57.344055%, 19.439697%)" offset="0.519531" />
      <stop stop-opacity="1" stop-color="rgb(96.224976%, 57.653809%, 19.393921%)" offset="0.523438" />
      <stop stop-opacity="1" stop-color="rgb(96.276855%, 57.962036%, 19.348145%)" offset="0.527344" />
      <stop stop-opacity="1" stop-color="rgb(96.328735%, 58.270264%, 19.303894%)" offset="0.53125" />
      <stop stop-opacity="1" stop-color="rgb(96.380615%, 58.578491%, 19.258118%)" offset="0.535156" />
      <stop stop-opacity="1" stop-color="rgb(96.434021%, 58.886719%, 19.212341%)" offset="0.539062" />
      <stop stop-opacity="1" stop-color="rgb(96.485901%, 59.194946%, 19.166565%)" offset="0.542969" />
      <stop stop-opacity="1" stop-color="rgb(96.537781%, 59.5047%, 19.120789%)" offset="0.546875" />
      <stop stop-opacity="1" stop-color="rgb(96.589661%, 59.812927%, 19.075012%)" offset="0.550781" />
      <stop stop-opacity="1" stop-color="rgb(96.641541%, 60.121155%, 19.030762%)" offset="0.554688" />
      <stop stop-opacity="1" stop-color="rgb(96.69342%, 60.429382%, 18.984985%)" offset="0.558594" />
      <stop stop-opacity="1" stop-color="rgb(96.746826%, 60.739136%, 18.939209%)" offset="0.5625" />
      <stop stop-opacity="1" stop-color="rgb(96.798706%, 61.047363%, 18.893433%)" offset="0.566406" />
      <stop stop-opacity="1" stop-color="rgb(96.850586%, 61.355591%, 18.847656%)" offset="0.570313" />
      <stop stop-opacity="1" stop-color="rgb(96.902466%, 61.663818%, 18.80188%)" offset="0.574219" />
      <stop stop-opacity="1" stop-color="rgb(96.954346%, 61.973572%, 18.757629%)" offset="0.578125" />
      <stop stop-opacity="1" stop-color="rgb(97.006226%, 62.281799%, 18.711853%)" offset="0.582031" />
      <stop stop-opacity="1" stop-color="rgb(97.058105%, 62.590027%, 18.666077%)" offset="0.585938" />
      <stop stop-opacity="1" stop-color="rgb(97.109985%, 62.898254%, 18.6203%)" offset="0.589844" />
      <stop stop-opacity="1" stop-color="rgb(97.163391%, 63.208008%, 18.574524%)" offset="0.59375" />
      <stop stop-opacity="1" stop-color="rgb(97.215271%, 63.516235%, 18.528748%)" offset="0.597656" />
      <stop stop-opacity="1" stop-color="rgb(97.267151%, 63.824463%, 18.484497%)" offset="0.601562" />
      <stop stop-opacity="1" stop-color="rgb(97.319031%, 64.13269%, 18.438721%)" offset="0.605469" />
      <stop stop-opacity="1" stop-color="rgb(97.370911%, 64.442444%, 18.392944%)" offset="0.609375" />
      <stop stop-opacity="1" stop-color="rgb(97.422791%, 64.750671%, 18.347168%)" offset="0.613281" />
      <stop stop-opacity="1" stop-color="rgb(97.476196%, 65.058899%, 18.302917%)" offset="0.617188" />
      <stop stop-opacity="1" stop-color="rgb(97.528076%, 65.367126%, 18.257141%)" offset="0.621094" />
      <stop stop-opacity="1" stop-color="rgb(97.579956%, 65.675354%, 18.211365%)" offset="0.625" />
      <stop stop-opacity="1" stop-color="rgb(97.631836%, 65.983582%, 18.165588%)" offset="0.628906" />
      <stop stop-opacity="1" stop-color="rgb(97.683716%, 66.293335%, 18.119812%)" offset="0.632812" />
      <stop stop-opacity="1" stop-color="rgb(97.735596%, 66.601562%, 18.074036%)" offset="0.636719" />
      <stop stop-opacity="1" stop-color="rgb(97.789001%, 66.90979%, 18.029785%)" offset="0.640625" />
      <stop stop-opacity="1" stop-color="rgb(97.840881%, 67.218018%, 17.984009%)" offset="0.644531" />
      <stop stop-opacity="1" stop-color="rgb(97.892761%, 67.527771%, 17.938232%)" offset="0.648438" />
      <stop stop-opacity="1" stop-color="rgb(97.944641%, 67.835999%, 17.892456%)" offset="0.652344" />
      <stop stop-opacity="1" stop-color="rgb(97.996521%, 68.144226%, 17.84668%)" offset="0.65625" />
      <stop stop-opacity="1" stop-color="rgb(98.048401%, 68.452454%, 17.800903%)" offset="0.660156" />
      <stop stop-opacity="1" stop-color="rgb(98.101807%, 68.762207%, 17.756653%)" offset="0.664063" />
      <stop stop-opacity="1" stop-color="rgb(98.153687%, 69.070435%, 17.710876%)" offset="0.667969" />
      <stop stop-opacity="1" stop-color="rgb(98.205566%, 69.378662%, 17.6651%)" offset="0.671875" />
      <stop stop-opacity="1" stop-color="rgb(98.257446%, 69.68689%, 17.619324%)" offset="0.675781" />
      <stop stop-opacity="1" stop-color="rgb(98.309326%, 69.996643%, 17.573547%)" offset="0.679688" />
      <stop stop-opacity="1" stop-color="rgb(98.361206%, 70.304871%, 17.527771%)" offset="0.683594" />
      <stop stop-opacity="1" stop-color="rgb(98.414612%, 70.613098%, 17.483521%)" offset="0.6875" />
      <stop stop-opacity="1" stop-color="rgb(98.466492%, 70.921326%, 17.437744%)" offset="0.691406" />
      <stop stop-opacity="1" stop-color="rgb(98.518372%, 71.229553%, 17.391968%)" offset="0.695313" />
      <stop stop-opacity="1" stop-color="rgb(98.570251%, 71.537781%, 17.346191%)" offset="0.699219" />
      <stop stop-opacity="1" stop-color="rgb(98.622131%, 71.847534%, 17.301941%)" offset="0.703125" />
      <stop stop-opacity="1" stop-color="rgb(98.674011%, 72.155762%, 17.256165%)" offset="0.707031" />
      <stop stop-opacity="1" stop-color="rgb(98.725891%, 72.463989%, 17.210388%)" offset="0.710938" />
      <stop stop-opacity="1" stop-color="rgb(98.777771%, 72.772217%, 17.164612%)" offset="0.714844" />
      <stop stop-opacity="1" stop-color="rgb(98.831177%, 73.08197%, 17.118835%)" offset="0.71875" />
      <stop stop-opacity="1" stop-color="rgb(98.883057%, 73.390198%, 17.073059%)" offset="0.722656" />
      <stop stop-opacity="1" stop-color="rgb(98.934937%, 73.698425%, 17.028809%)" offset="0.726562" />
      <stop stop-opacity="1" stop-color="rgb(98.986816%, 74.006653%, 16.983032%)" offset="0.730469" />
      <stop stop-opacity="1" stop-color="rgb(99.038696%, 74.316406%, 16.937256%)" offset="0.734375" />
      <stop stop-opacity="1" stop-color="rgb(99.090576%, 74.624634%, 16.891479%)" offset="0.738281" />
      <stop stop-opacity="1" stop-color="rgb(99.143982%, 74.932861%, 16.845703%)" offset="0.742188" />
      <stop stop-opacity="1" stop-color="rgb(99.195862%, 75.241089%, 16.799927%)" offset="0.746094" />
      <stop stop-opacity="1" stop-color="rgb(99.247742%, 75.550842%, 16.755676%)" offset="0.75" />
      <stop stop-opacity="1" stop-color="rgb(99.299622%, 75.85907%, 16.7099%)" offset="0.753906" />
      <stop stop-opacity="1" stop-color="rgb(99.351501%, 76.167297%, 16.664124%)" offset="0.757812" />
      <stop stop-opacity="1" stop-color="rgb(99.403381%, 76.475525%, 16.618347%)" offset="0.761719" />
      <stop stop-opacity="1" stop-color="rgb(99.456787%, 76.785278%, 16.572571%)" offset="0.765625" />
      <stop stop-opacity="1" stop-color="rgb(99.508667%, 77.093506%, 16.526794%)" offset="0.769531" />
      <stop stop-opacity="1" stop-color="rgb(99.560547%, 77.401733%, 16.482544%)" offset="0.773438" />
      <stop stop-opacity="1" stop-color="rgb(99.612427%, 77.709961%, 16.436768%)" offset="0.777344" />
      <stop stop-opacity="1" stop-color="rgb(99.664307%, 78.018188%, 16.390991%)" offset="0.78125" />
      <stop stop-opacity="1" stop-color="rgb(99.716187%, 78.326416%, 16.345215%)" offset="0.785156" />
      <stop stop-opacity="1" stop-color="rgb(99.769592%, 78.636169%, 16.300964%)" offset="0.789063" />
      <stop stop-opacity="1" stop-color="rgb(99.821472%, 78.944397%, 16.255188%)" offset="0.792969" />
      <stop stop-opacity="1" stop-color="rgb(99.873352%, 79.252625%, 16.209412%)" offset="0.796875" />
      <stop stop-opacity="1" stop-color="rgb(99.925232%, 79.560852%, 16.163635%)" offset="0.800781" />
      <stop stop-opacity="1" stop-color="rgb(99.977112%, 79.870605%, 16.117859%)" offset="0.804688" />
      <stop stop-opacity="1" stop-color="rgb(99.987793%, 79.934692%, 16.108704%)" offset="0.8125" />
      <stop stop-opacity="1" stop-color="rgb(100%, 79.998779%, 16.099548%)" offset="0.875" />
      <stop stop-opacity="1" stop-color="rgb(100%, 79.998779%, 16.099548%)" offset="1" />
    </linearGradient>
  </defs>
  <g clip-path="url(#a8df6bad1c)">
    <g clip-path="url(#645d80b3e5)">
      <path fill="url(#696ba71332)" d="M 79.730469 97.300781 L 79.730469 187.6875 L 295.246094 187.6875 L 295.246094 97.300781 Z M 79.730469 97.300781 " fill-rule="nonzero" />
    </g>
  </g>
  <path fill="#d9d9d9" d="M 186.105469 179.308594 L 186.105469 174.433594 L 181.230469 174.433594 L 181.230469 179.308594 Z M 181.230469 171.65625 L 186.105469 171.65625 L 186.105469 166.792969 L 181.230469 166.792969 Z M 188.882812 166.792969 L 188.882812 171.65625 L 193.757812 171.65625 L 193.757812 166.792969 Z M 193.757812 174.441406 L 188.882812 174.441406 L 188.882812 179.316406 L 193.757812 179.316406 Z M 193.757812 174.441406 " fill-opacity="1" fill-rule="evenodd" />
  <g fill="#ff914d" fill-opacity="1">
    <g transform="translate(110.16812, 225.681578)">
      <g>
        <path d="M 2.78125 0 C 2.84375 -0.34375 2.875 -0.722656 2.875 -1.140625 L 2.875 -20.421875 L 5.9375 -20.421875 L 14.078125 -7.625 L 14.078125 -19.375 C 14.078125 -19.9375 14.023438 -20.285156 13.921875 -20.421875 L 18.078125 -20.421875 C 18.023438 -20.015625 18 -19.566406 18 -19.078125 L 18 0 L 14.8125 0 L 6.78125 -12.296875 L 6.78125 0 Z M 2.78125 0 " />
      </g>
    </g>
  </g>
  <g fill="#ff914d" fill-opacity="1">
    <g transform="translate(135.434481, 225.681578)">
      <g>
        <path d="M 12.921875 -3.6875 C 13.554688 -3.6875 13.992188 -3.75 14.234375 -3.875 L 14.296875 -3.859375 L 14.140625 0 L 2.640625 0 L 2.640625 -20.53125 C 2.921875 -20.507812 3.226562 -20.492188 3.5625 -20.484375 L 4.640625 -20.453125 C 5.359375 -20.429688 6.132812 -20.421875 6.96875 -20.421875 C 9.3125 -20.421875 11.628906 -20.460938 13.921875 -20.546875 C 13.816406 -19.648438 13.765625 -18.445312 13.765625 -16.9375 C 13.765625 -16.769531 13.773438 -16.648438 13.796875 -16.578125 L 13.765625 -16.53125 C 13.234375 -16.675781 12.472656 -16.75 11.484375 -16.75 L 6.65625 -16.75 L 6.65625 -12.84375 L 10.296875 -12.84375 C 11.421875 -12.84375 12.09375 -12.875 12.3125 -12.9375 L 12.359375 -9.140625 C 11.867188 -9.191406 11.234375 -9.21875 10.453125 -9.21875 L 6.65625 -9.21875 L 6.65625 -3.6875 Z M 12.921875 -3.6875 " />
      </g>
    </g>
  </g>
  <g fill="#ff914d" fill-opacity="1">
    <g transform="translate(155.588538, 225.681578)">
      <g>
        <path d="M 11.96875 -18.9375 C 12.175781 -19.382812 12.28125 -19.71875 12.28125 -19.9375 C 12.28125 -20.15625 12.257812 -20.316406 12.21875 -20.421875 L 17.75 -20.421875 C 17.632812 -20.296875 17.488281 -20.148438 17.3125 -19.984375 C 17.144531 -19.816406 16.953125 -19.613281 16.734375 -19.375 C 16.222656 -18.800781 15.753906 -18.140625 15.328125 -17.390625 L 11.625 -10.625 L 15.078125 -4.125 L 15.5 -3.28125 C 16.269531 -1.664062 16.929688 -0.570312 17.484375 0 L 12.46875 0 C 12.425781 -0.351562 12.253906 -0.832031 11.953125 -1.4375 L 8.9375 -7.21875 C 6.820312 -2.925781 5.738281 -0.710938 5.6875 -0.578125 C 5.632812 -0.410156 5.59375 -0.21875 5.5625 0 L 0.546875 0 C 0.929688 -0.382812 1.320312 -0.929688 1.71875 -1.640625 L 3.5625 -4.921875 L 6.828125 -10.453125 L 2.53125 -18.546875 C 2.070312 -19.421875 1.671875 -20.046875 1.328125 -20.421875 L 6.484375 -20.421875 C 6.441406 -20.316406 6.421875 -20.207031 6.421875 -20.09375 C 6.421875 -19.8125 6.546875 -19.425781 6.796875 -18.9375 L 9.375 -13.8125 Z M 11.96875 -18.9375 " />
      </g>
    </g>
  </g>
  <g fill="#ff914d" fill-opacity="1">
    <g transform="translate(178.306427, 225.681578)">
      <g>
        <path d="M 10.015625 0.09375 C 9.523438 0.03125 8.257812 0 6.21875 0 L 5.734375 0 L 5.734375 -16.984375 L 2.6875 -16.984375 C 1.789062 -16.984375 1.257812 -16.9375 1.09375 -16.84375 C 0.925781 -16.75 0.796875 -16.671875 0.703125 -16.609375 L 0.65625 -16.625 L 0.65625 -20.546875 L 0.703125 -20.59375 C 1.046875 -20.476562 1.957031 -20.421875 3.4375 -20.421875 L 13.0625 -20.421875 C 13.96875 -20.421875 14.5 -20.46875 14.65625 -20.5625 C 14.820312 -20.65625 14.953125 -20.738281 15.046875 -20.8125 L 15.09375 -20.796875 L 15.09375 -16.859375 L 15.046875 -16.8125 C 14.710938 -16.925781 13.800781 -16.984375 12.3125 -16.984375 L 10.015625 -16.984375 Z M 10.015625 0.09375 " />
      </g>
    </g>
  </g>
  <g fill="#ff914d" fill-opacity="1">
    <g transform="translate(198.460484, 225.681578)">
      <g>
        <path d="M 19.46875 -12.3125 C 19.28125 -11.96875 19.1875 -11.132812 19.1875 -9.8125 L 19.1875 -5.046875 C 19.1875 -3.609375 18.4375 -2.359375 16.9375 -1.296875 C 15.394531 -0.171875 13.5 0.390625 11.25 0.390625 C 8.144531 0.390625 5.664062 -0.585938 3.8125 -2.546875 C 2.019531 -4.410156 1.125 -6.785156 1.125 -9.671875 C 1.125 -12.742188 2.035156 -15.304688 3.859375 -17.359375 C 5.890625 -19.660156 8.691406 -20.8125 12.265625 -20.8125 C 14.648438 -20.8125 16.539062 -20.347656 17.9375 -19.421875 L 17.6875 -14.890625 L 17.5625 -14.859375 C 17.207031 -15.484375 16.503906 -16 15.453125 -16.40625 C 14.441406 -16.78125 13.382812 -16.96875 12.28125 -16.96875 C 11.1875 -16.96875 10.226562 -16.789062 9.40625 -16.4375 C 8.582031 -16.09375 7.882812 -15.597656 7.3125 -14.953125 C 6.101562 -13.640625 5.5 -11.894531 5.5 -9.71875 C 5.5 -7.820312 6.03125 -6.300781 7.09375 -5.15625 C 8.15625 -4.019531 9.53125 -3.453125 11.21875 -3.453125 C 13.0625 -3.453125 14.304688 -3.9375 14.953125 -4.90625 C 15.160156 -5.207031 15.265625 -5.550781 15.265625 -5.9375 L 15.265625 -8.5 L 13.28125 -8.5 C 12.21875 -8.5 11.640625 -8.40625 11.546875 -8.21875 L 11.5 -8.234375 L 11.359375 -12.234375 C 11.648438 -12.160156 12.8125 -12.125 14.84375 -12.125 L 16.65625 -12.125 C 17.789062 -12.125 18.710938 -12.195312 19.421875 -12.34375 Z M 19.46875 -12.3125 " />
      </g>
    </g>
  </g>
  <g fill="#ff914d" fill-opacity="1">
    <g transform="translate(223.803595, 225.681578)">
      <g>
        <path d="M 12.921875 -3.6875 C 13.554688 -3.6875 13.992188 -3.75 14.234375 -3.875 L 14.296875 -3.859375 L 14.140625 0 L 2.640625 0 L 2.640625 -20.53125 C 2.921875 -20.507812 3.226562 -20.492188 3.5625 -20.484375 L 4.640625 -20.453125 C 5.359375 -20.429688 6.132812 -20.421875 6.96875 -20.421875 C 9.3125 -20.421875 11.628906 -20.460938 13.921875 -20.546875 C 13.816406 -19.648438 13.765625 -18.445312 13.765625 -16.9375 C 13.765625 -16.769531 13.773438 -16.648438 13.796875 -16.578125 L 13.765625 -16.53125 C 13.234375 -16.675781 12.472656 -16.75 11.484375 -16.75 L 6.65625 -16.75 L 6.65625 -12.84375 L 10.296875 -12.84375 C 11.421875 -12.84375 12.09375 -12.875 12.3125 -12.9375 L 12.359375 -9.140625 C 11.867188 -9.191406 11.234375 -9.21875 10.453125 -9.21875 L 6.65625 -9.21875 L 6.65625 -3.6875 Z M 12.921875 -3.6875 " />
      </g>
    </g>
  </g>
  <g fill="#ff914d" fill-opacity="1">
    <g transform="translate(243.957646, 225.681578)">
      <g>
        <path d="M 2.78125 0 C 2.84375 -0.34375 2.875 -0.722656 2.875 -1.140625 L 2.875 -20.421875 L 5.9375 -20.421875 L 14.078125 -7.625 L 14.078125 -19.375 C 14.078125 -19.9375 14.023438 -20.285156 13.921875 -20.421875 L 18.078125 -20.421875 C 18.023438 -20.015625 18 -19.566406 18 -19.078125 L 18 0 L 14.8125 0 L 6.78125 -12.296875 L 6.78125 0 Z M 2.78125 0 " />
      </g>
    </g>
  </g>
  <g fill="#ffcc29" fill-opacity="1">
    <g transform="translate(157.327063, 252.973827)">
      <g>
        <path d="M 3.90625 -4.484375 C 4.09375 -4.53125 4.25 -4.609375 4.390625 -4.640625 C 4.59375 -4.65625 4.78125 -4.640625 4.921875 -4.609375 C 5.125 -4.609375 5.265625 -4.578125 5.421875 -4.484375 C 5.546875 -4.421875 5.671875 -4.3125 5.78125 -4.140625 C 5.84375 -4.015625 5.921875 -3.859375 6.015625 -3.671875 C 6.0625 -3.53125 6.125 -3.359375 6.21875 -3.203125 C 6.265625 -3.046875 6.375 -2.90625 6.453125 -2.75 C 6.53125 -2.578125 6.5625 -2.421875 6.625 -2.25 C 6.703125 -2.09375 6.78125 -1.9375 6.84375 -1.78125 C 6.921875 -1.625 7.03125 -1.484375 7.109375 -1.328125 C 7.171875 -1.1875 7.265625 -1.015625 7.328125 -0.875 C 7.421875 -0.6875 7.453125 -0.53125 7.515625 -0.40625 C 7.625 -0.21875 7.78125 -0.140625 7.890625 -0.078125 C 8.03125 0 8.15625 0 8.359375 0 C 8.5 -0.015625 8.671875 -0.015625 8.875 -0.015625 C 9.046875 -0.015625 9.21875 0 9.328125 -0.015625 C 9.515625 -0.046875 9.609375 -0.125 9.59375 -0.3125 C 9.578125 -0.421875 9.5625 -0.578125 9.484375 -0.765625 C 9.453125 -0.890625 9.34375 -1.015625 9.265625 -1.1875 C 9.21875 -1.328125 9.15625 -1.46875 9.078125 -1.640625 C 9.03125 -1.78125 8.921875 -1.921875 8.84375 -2.09375 C 8.796875 -2.234375 8.71875 -2.375 8.671875 -2.546875 C 8.59375 -2.6875 8.515625 -2.828125 8.453125 -2.984375 C 8.375 -3.140625 8.328125 -3.296875 8.25 -3.4375 C 8.171875 -3.59375 8.125 -3.75 8.046875 -3.890625 C 7.984375 -4.046875 7.90625 -4.203125 7.84375 -4.34375 C 7.78125 -4.484375 7.734375 -4.671875 7.6875 -4.8125 C 7.625 -4.921875 7.625 -5.0625 7.734375 -5.15625 C 7.90625 -5.3125 8.046875 -5.453125 8.171875 -5.5625 C 8.34375 -5.703125 8.515625 -5.796875 8.671875 -5.9375 C 8.78125 -6.0625 8.84375 -6.21875 8.9375 -6.34375 C 9.03125 -6.46875 9.125 -6.609375 9.1875 -6.765625 C 9.25 -6.90625 9.28125 -7.0625 9.34375 -7.21875 C 9.375 -7.375 9.40625 -7.515625 9.4375 -7.6875 C 9.453125 -7.828125 9.484375 -8 9.484375 -8.15625 C 9.484375 -8.328125 9.5 -8.484375 9.484375 -8.65625 C 9.46875 -8.796875 9.390625 -8.953125 9.34375 -9.109375 C 9.296875 -9.265625 9.234375 -9.40625 9.171875 -9.5625 C 9.109375 -9.703125 9.046875 -9.84375 8.953125 -9.96875 C 8.875 -10.109375 8.78125 -10.234375 8.671875 -10.359375 C 8.5625 -10.46875 8.4375 -10.578125 8.296875 -10.671875 C 8.171875 -10.78125 8.0625 -10.859375 7.921875 -10.953125 C 7.78125 -11.03125 7.625 -11.078125 7.484375 -11.140625 C 7.34375 -11.1875 7.203125 -11.28125 7.03125 -11.296875 C 6.84375 -11.34375 6.6875 -11.328125 6.5 -11.359375 C 6.34375 -11.375 6.171875 -11.40625 6 -11.4375 C 5.828125 -11.453125 5.65625 -11.453125 5.484375 -11.46875 C 5.3125 -11.46875 5.140625 -11.484375 4.953125 -11.5 C 4.796875 -11.5 4.609375 -11.484375 4.453125 -11.5 C 4.28125 -11.5 4.109375 -11.5 3.9375 -11.5 C 3.765625 -11.5 3.59375 -11.515625 3.421875 -11.515625 C 3.25 -11.5 3.078125 -11.484375 2.90625 -11.484375 C 2.703125 -11.484375 2.53125 -11.5 2.359375 -11.5 C 2.140625 -11.5 1.984375 -11.46875 1.828125 -11.40625 C 1.671875 -11.34375 1.578125 -11.234375 1.53125 -11.015625 C 1.515625 -10.859375 1.484375 -10.6875 1.484375 -10.46875 C 1.46875 -10.296875 1.46875 -10.140625 1.46875 -9.96875 C 1.46875 -9.828125 1.46875 -9.671875 1.46875 -9.5 C 1.46875 -9.34375 1.46875 -9.171875 1.46875 -9.015625 C 1.46875 -8.84375 1.46875 -8.6875 1.46875 -8.515625 C 1.46875 -8.359375 1.453125 -8.203125 1.4375 -8.03125 C 1.4375 -7.875 1.40625 -7.703125 1.40625 -7.546875 C 1.40625 -7.375 1.4375 -7.21875 1.4375 -7.046875 C 1.4375 -6.890625 1.421875 -6.71875 1.421875 -6.5625 C 1.421875 -6.390625 1.421875 -6.234375 1.421875 -6.0625 C 1.421875 -5.90625 1.421875 -5.75 1.421875 -5.578125 C 1.421875 -5.421875 1.4375 -5.25 1.4375 -5.09375 C 1.4375 -4.921875 1.40625 -4.78125 1.40625 -4.609375 C 1.40625 -4.453125 1.40625 -4.28125 1.40625 -4.125 C 1.40625 -3.96875 1.421875 -3.796875 1.421875 -3.640625 C 1.421875 -3.46875 1.40625 -3.3125 1.40625 -3.15625 C 1.421875 -3 1.421875 -2.828125 1.421875 -2.671875 C 1.421875 -2.5 1.421875 -2.34375 1.421875 -2.1875 C 1.421875 -2.015625 1.453125 -1.859375 1.453125 -1.6875 C 1.453125 -1.546875 1.421875 -1.375 1.40625 -1.203125 C 1.375 -1.015625 1.40625 -0.859375 1.40625 -0.6875 C 1.421875 -0.484375 1.40625 -0.3125 1.46875 -0.1875 C 1.53125 -0.046875 1.75 -0.03125 1.9375 0 C 2.140625 0.03125 2.359375 0.03125 2.46875 0.015625 C 2.609375 -0.015625 2.78125 0 2.921875 -0.015625 C 3.109375 -0.046875 3.265625 -0.09375 3.328125 -0.234375 C 3.375 -0.375 3.390625 -0.578125 3.390625 -0.78125 C 3.421875 -0.96875 3.421875 -1.15625 3.421875 -1.34375 C 3.390625 -1.5625 3.390625 -1.75 3.390625 -1.90625 C 3.390625 -2.078125 3.390625 -2.25 3.390625 -2.421875 C 3.390625 -2.578125 3.390625 -2.765625 3.390625 -2.921875 C 3.390625 -3.09375 3.359375 -3.265625 3.359375 -3.4375 C 3.359375 -3.59375 3.421875 -3.78125 3.421875 -3.9375 C 3.421875 -4.109375 3.359375 -4.28125 3.359375 -4.453125 C 3.5625 -4.484375 3.75 -4.46875 3.90625 -4.484375 Z M 3.453125 -7.015625 C 3.453125 -7.203125 3.46875 -7.359375 3.46875 -7.515625 C 3.46875 -7.703125 3.46875 -7.875 3.46875 -8.03125 C 3.46875 -8.203125 3.453125 -8.375 3.453125 -8.546875 C 3.453125 -8.703125 3.46875 -8.890625 3.46875 -9.046875 C 3.46875 -9.21875 3.46875 -9.359375 3.46875 -9.546875 C 3.65625 -9.546875 3.796875 -9.5625 3.96875 -9.5625 C 4.125 -9.5625 4.28125 -9.5625 4.453125 -9.5625 C 4.640625 -9.5625 4.796875 -9.578125 4.953125 -9.578125 C 5.125 -9.578125 5.28125 -9.578125 5.453125 -9.578125 C 5.609375 -9.5625 5.796875 -9.578125 5.953125 -9.578125 C 6.125 -9.5625 6.265625 -9.515625 6.390625 -9.46875 C 6.5625 -9.4375 6.71875 -9.40625 6.84375 -9.34375 C 6.984375 -9.265625 7.09375 -9.140625 7.203125 -9.046875 C 7.3125 -8.9375 7.4375 -8.828125 7.484375 -8.703125 C 7.5625 -8.5625 7.59375 -8.390625 7.59375 -8.25 C 7.609375 -8.0625 7.5625 -7.90625 7.5 -7.71875 C 7.453125 -7.5625 7.328125 -7.4375 7.21875 -7.28125 C 7.109375 -7.15625 7 -7.015625 6.84375 -6.90625 C 6.71875 -6.8125 6.5625 -6.71875 6.390625 -6.671875 C 6.234375 -6.59375 6.0625 -6.5625 5.890625 -6.546875 C 5.75 -6.546875 5.578125 -6.5 5.421875 -6.5 C 5.25 -6.5 5.09375 -6.5 4.921875 -6.5 C 4.765625 -6.5 4.59375 -6.46875 4.4375 -6.46875 C 4.265625 -6.46875 4.109375 -6.53125 3.9375 -6.53125 C 3.78125 -6.546875 3.609375 -6.484375 3.4375 -6.484375 C 3.4375 -6.671875 3.46875 -6.84375 3.453125 -7.015625 Z M 3.453125 -7.015625 " />
      </g>
    </g>
  </g>
  <g fill="#ffcc29" fill-opacity="1">
    <g transform="translate(168.789059, 252.973827)">
      <g>
        <path d="M 3.796875 -7.609375 C 3.96875 -7.609375 4.125 -7.609375 4.28125 -7.609375 C 4.46875 -7.609375 4.640625 -7.578125 4.796875 -7.578125 C 4.953125 -7.578125 5.140625 -7.609375 5.3125 -7.609375 C 5.46875 -7.609375 5.640625 -7.609375 5.796875 -7.609375 C 5.984375 -7.609375 6.140625 -7.578125 6.3125 -7.578125 C 6.46875 -7.578125 6.65625 -7.59375 6.796875 -7.59375 C 6.984375 -7.59375 7.140625 -7.609375 7.3125 -7.609375 C 7.5 -7.609375 7.671875 -7.609375 7.796875 -7.6875 C 7.9375 -7.765625 8.015625 -7.890625 8.09375 -8.046875 C 8.140625 -8.203125 8.171875 -8.34375 8.203125 -8.546875 C 8.203125 -8.6875 8.234375 -8.828125 8.234375 -8.984375 C 8.234375 -9.125 8.21875 -9.265625 8.109375 -9.359375 C 8.03125 -9.4375 7.90625 -9.484375 7.71875 -9.515625 C 7.59375 -9.546875 7.46875 -9.578125 7.28125 -9.578125 C 7.140625 -9.578125 6.953125 -9.546875 6.78125 -9.546875 C 6.609375 -9.546875 6.4375 -9.5625 6.25 -9.546875 C 6.09375 -9.546875 5.90625 -9.5625 5.75 -9.5625 C 5.5625 -9.5625 5.375 -9.515625 5.21875 -9.5 C 5.03125 -9.5 4.859375 -9.5 4.703125 -9.5 C 4.5625 -9.5 4.390625 -9.484375 4.234375 -9.5 C 4.09375 -9.5 3.921875 -9.484375 3.765625 -9.484375 C 3.609375 -9.5 3.453125 -9.5 3.296875 -9.5 C 3.140625 -9.515625 2.984375 -9.5625 2.8125 -9.578125 C 2.671875 -9.578125 2.5 -9.546875 2.34375 -9.546875 C 2.203125 -9.5625 2.03125 -9.578125 1.875 -9.578125 C 1.71875 -9.578125 1.578125 -9.546875 1.4375 -9.546875 C 1.421875 -9.375 1.375 -9.234375 1.375 -9.0625 C 1.359375 -8.90625 1.40625 -8.734375 1.40625 -8.578125 C 1.40625 -8.40625 1.359375 -8.25 1.359375 -8.09375 C 1.359375 -7.921875 1.375 -7.765625 1.359375 -7.59375 C 1.359375 -7.421875 1.359375 -7.25 1.359375 -7.09375 C 1.359375 -6.921875 1.359375 -6.765625 1.359375 -6.59375 C 1.359375 -6.4375 1.34375 -6.265625 1.328125 -6.109375 C 1.328125 -5.9375 1.375 -5.78125 1.375 -5.609375 C 1.375 -5.453125 1.328125 -5.28125 1.328125 -5.125 C 1.328125 -4.953125 1.359375 -4.796875 1.34375 -4.640625 C 1.34375 -4.46875 1.328125 -4.328125 1.328125 -4.15625 C 1.328125 -4 1.328125 -3.828125 1.328125 -3.671875 C 1.328125 -3.5 1.328125 -3.34375 1.328125 -3.1875 C 1.328125 -3.015625 1.328125 -2.859375 1.328125 -2.6875 C 1.328125 -2.53125 1.328125 -2.359375 1.328125 -2.203125 C 1.328125 -2.03125 1.296875 -1.875 1.296875 -1.703125 C 1.265625 -1.546875 1.328125 -1.375 1.328125 -1.21875 C 1.328125 -1.046875 1.328125 -0.890625 1.328125 -0.734375 C 1.328125 -0.625 1.40625 -0.4375 1.53125 -0.3125 C 1.671875 -0.15625 1.828125 -0.09375 1.96875 -0.09375 C 2.125 -0.09375 2.296875 -0.046875 2.46875 -0.046875 C 2.640625 -0.046875 2.796875 -0.015625 2.984375 -0.015625 C 3.140625 -0.015625 3.3125 -0.015625 3.484375 -0.015625 C 3.65625 0 3.8125 -0.015625 4 -0.015625 C 4.15625 -0.015625 4.34375 0.015625 4.5 0.015625 C 4.671875 0.03125 4.859375 0.015625 5.015625 0.015625 C 5.203125 0.03125 5.359375 0 5.53125 0 C 5.703125 0 5.875 0 6.03125 0 C 6.21875 0 6.375 0.03125 6.546875 0.03125 C 6.71875 0.03125 6.890625 0.015625 7.046875 0.015625 C 7.234375 0.015625 7.390625 0.015625 7.5625 0 C 7.765625 0 7.890625 -0.078125 7.984375 -0.203125 C 8.0625 -0.3125 8.109375 -0.46875 8.09375 -0.65625 C 8.046875 -0.796875 8.015625 -0.984375 7.921875 -1.125 C 7.828125 -1.234375 7.765625 -1.421875 7.671875 -1.578125 C 7.578125 -1.765625 7.46875 -1.890625 7.3125 -1.90625 C 7.15625 -1.921875 7.015625 -1.921875 6.828125 -1.921875 C 6.6875 -1.921875 6.53125 -1.921875 6.359375 -1.921875 C 6.203125 -1.921875 6.03125 -1.96875 5.890625 -1.96875 C 5.71875 -1.96875 5.5625 -1.921875 5.421875 -1.90625 C 5.25 -1.90625 5.09375 -1.9375 4.921875 -1.9375 C 4.765625 -1.9375 4.59375 -1.921875 4.46875 -1.921875 C 4.3125 -1.9375 4.15625 -1.9375 4.03125 -1.9375 C 3.875 -1.9375 3.71875 -1.921875 3.59375 -1.921875 C 3.328125 -1.921875 3.3125 -1.78125 3.140625 -1.921875 C 2.9375 -2.140625 3.125 -2.15625 3.109375 -2.5 C 3.109375 -2.671875 3.09375 -2.875 3.09375 -3.09375 C 3.109375 -3.328125 3.03125 -3.390625 3.109375 -3.703125 C 3.25 -3.703125 3.421875 -3.6875 3.59375 -3.6875 C 3.765625 -3.6875 3.921875 -3.703125 4.09375 -3.703125 C 4.25 -3.703125 4.4375 -3.6875 4.59375 -3.6875 C 4.765625 -3.6875 4.921875 -3.71875 5.09375 -3.71875 C 5.265625 -3.71875 5.4375 -3.6875 5.578125 -3.6875 C 5.78125 -3.6875 5.9375 -3.6875 6.09375 -3.6875 C 6.28125 -3.6875 6.453125 -3.75 6.578125 -3.78125 C 6.78125 -3.8125 6.9375 -3.875 7.03125 -3.984375 C 7.125 -4.109375 7.171875 -4.265625 7.203125 -4.46875 C 7.203125 -4.609375 7.140625 -4.78125 7.125 -4.953125 C 7.109375 -5.125 7.109375 -5.28125 7.0625 -5.46875 C 6.9375 -5.484375 6.78125 -5.5 6.59375 -5.5 C 6.453125 -5.5 6.3125 -5.46875 6.140625 -5.484375 C 5.984375 -5.484375 5.828125 -5.546875 5.671875 -5.546875 C 5.5 -5.546875 5.359375 -5.5 5.203125 -5.53125 C 5.046875 -5.53125 4.890625 -5.546875 4.75 -5.546875 C 4.578125 -5.5625 4.421875 -5.5625 4.28125 -5.5625 C 4.109375 -5.578125 3.90625 -5.609375 3.75 -5.609375 C 3.4375 -5.609375 3.375 -5.390625 3.1875 -5.59375 C 2.984375 -5.78125 3.203125 -5.875 3.1875 -6.15625 C 3.1875 -6.34375 3.1875 -6.546875 3.1875 -6.71875 C 3.1875 -6.90625 3.1875 -7 3.203125 -7.15625 C 3.234375 -7.265625 3.265625 -7.390625 3.3125 -7.59375 C 3.46875 -7.59375 3.609375 -7.609375 3.796875 -7.609375 Z M 3.796875 -7.609375 " />
      </g>
    </g>
  </g>
  <g fill="#ffcc29" fill-opacity="1">
    <g transform="translate(178.779767, 252.973827)">
      <g>
        <path d="M 3.671875 -1.53125 C 3.859375 -1.53125 4.03125 -1.546875 4.21875 -1.546875 C 4.390625 -1.546875 4.578125 -1.546875 4.75 -1.546875 C 4.921875 -1.5625 5.109375 -1.546875 5.28125 -1.546875 C 5.421875 -1.5625 5.5625 -1.578125 5.703125 -1.578125 C 5.84375 -1.59375 6 -1.578125 6.140625 -1.578125 C 6.3125 -1.59375 6.453125 -1.59375 6.5625 -1.59375 C 6.65625 -1.625 6.734375 -1.546875 6.78125 -1.453125 C 6.8125 -1.328125 6.875 -1.125 6.953125 -0.90625 C 7.015625 -0.75 7.140625 -0.5625 7.21875 -0.40625 C 7.265625 -0.203125 7.390625 -0.109375 7.578125 -0.046875 C 7.71875 0 7.90625 0.046875 8.109375 0.046875 C 8.28125 0.046875 8.46875 0.015625 8.65625 0.015625 C 8.90625 0.015625 9.078125 -0.015625 9.21875 -0.09375 C 9.390625 -0.15625 9.453125 -0.3125 9.34375 -0.578125 C 9.28125 -0.703125 9.21875 -0.859375 9.140625 -1.03125 C 9.078125 -1.1875 9.015625 -1.328125 8.9375 -1.484375 C 8.890625 -1.640625 8.84375 -1.796875 8.78125 -1.9375 C 8.71875 -2.109375 8.65625 -2.25 8.59375 -2.40625 C 8.515625 -2.5625 8.46875 -2.703125 8.390625 -2.859375 C 8.34375 -3.015625 8.296875 -3.1875 8.25 -3.328125 C 8.171875 -3.46875 8.09375 -3.609375 8.015625 -3.78125 C 7.953125 -3.921875 7.90625 -4.109375 7.84375 -4.25 C 7.796875 -4.421875 7.765625 -4.578125 7.6875 -4.75 C 7.625 -4.90625 7.546875 -5.046875 7.46875 -5.203125 C 7.421875 -5.359375 7.359375 -5.53125 7.3125 -5.6875 C 7.234375 -5.84375 7.171875 -6 7.109375 -6.15625 C 7.046875 -6.328125 6.953125 -6.46875 6.90625 -6.625 C 6.84375 -6.78125 6.78125 -6.9375 6.703125 -7.109375 C 6.65625 -7.25 6.609375 -7.4375 6.5625 -7.578125 C 6.5 -7.734375 6.390625 -7.890625 6.328125 -8.046875 C 6.265625 -8.203125 6.21875 -8.359375 6.15625 -8.515625 C 6.09375 -8.6875 6 -8.828125 5.9375 -8.984375 C 5.84375 -9.1875 5.796875 -9.375 5.703125 -9.484375 C 5.5625 -9.625 5.375 -9.65625 5.171875 -9.671875 C 5.015625 -9.6875 4.828125 -9.6875 4.640625 -9.6875 C 4.484375 -9.671875 4.28125 -9.6875 4.078125 -9.5625 C 3.9375 -9.484375 3.796875 -9.359375 3.671875 -9.140625 C 3.59375 -9 3.53125 -8.8125 3.46875 -8.59375 C 3.421875 -8.4375 3.34375 -8.28125 3.296875 -8.140625 C 3.21875 -7.984375 3.21875 -7.8125 3.15625 -7.65625 C 3.109375 -7.5 3.015625 -7.359375 2.96875 -7.203125 C 2.890625 -7.046875 2.875 -6.875 2.8125 -6.71875 C 2.765625 -6.5625 2.671875 -6.421875 2.609375 -6.265625 C 2.5625 -6.109375 2.5 -5.9375 2.453125 -5.796875 C 2.40625 -5.640625 2.359375 -5.46875 2.296875 -5.328125 C 2.234375 -5.15625 2.1875 -5 2.125 -4.859375 C 2.078125 -4.6875 2.015625 -4.53125 1.96875 -4.375 C 1.90625 -4.21875 1.8125 -4.09375 1.765625 -3.921875 C 1.703125 -3.765625 1.703125 -3.59375 1.65625 -3.4375 C 1.578125 -3.296875 1.53125 -3.125 1.46875 -2.984375 C 1.421875 -2.8125 1.328125 -2.671875 1.265625 -2.53125 C 1.21875 -2.359375 1.203125 -2.203125 1.140625 -2.03125 C 1.09375 -1.890625 1.015625 -1.75 0.96875 -1.578125 C 0.921875 -1.515625 0.859375 -1.34375 0.78125 -1.15625 C 0.734375 -1.015625 0.671875 -0.875 0.640625 -0.734375 C 0.5625 -0.546875 0.53125 -0.359375 0.53125 -0.296875 C 0.484375 -0.015625 0.578125 0.03125 0.796875 0.03125 C 0.921875 0.03125 1.109375 0.015625 1.328125 0.03125 C 1.421875 0.03125 1.578125 0.03125 1.75 0.015625 C 1.890625 0.015625 2.03125 0.015625 2.15625 -0.015625 C 2.328125 -0.046875 2.46875 -0.109375 2.53125 -0.21875 C 2.609375 -0.375 2.671875 -0.53125 2.71875 -0.65625 C 2.796875 -0.796875 2.859375 -0.9375 2.921875 -1.09375 C 3 -1.234375 3.046875 -1.375 3.125 -1.546875 C 3.3125 -1.546875 3.5 -1.53125 3.671875 -1.53125 Z M 3.796875 -3.9375 C 3.875 -4.109375 3.984375 -4.25 4.03125 -4.421875 C 4.109375 -4.578125 4.125 -4.78125 4.203125 -4.9375 C 4.25 -5.109375 4.328125 -5.265625 4.390625 -5.4375 C 4.46875 -5.59375 4.5625 -5.75 4.640625 -5.921875 C 4.703125 -6.09375 4.75 -6.265625 4.796875 -6.453125 C 4.890625 -6.3125 4.984375 -6.15625 5.046875 -6.015625 C 5.140625 -5.875 5.203125 -5.71875 5.265625 -5.59375 C 5.34375 -5.453125 5.421875 -5.3125 5.484375 -5.171875 C 5.5625 -5.03125 5.640625 -4.890625 5.703125 -4.75 C 5.765625 -4.59375 5.796875 -4.4375 5.84375 -4.28125 C 5.921875 -4.140625 6 -4 6.046875 -3.859375 C 6.125 -3.703125 6.21875 -3.5625 6.265625 -3.421875 C 6.09375 -3.421875 5.90625 -3.390625 5.71875 -3.390625 C 5.5625 -3.390625 5.375 -3.4375 5.203125 -3.4375 C 5.03125 -3.4375 4.859375 -3.421875 4.671875 -3.421875 C 4.5 -3.421875 4.328125 -3.421875 4.140625 -3.421875 C 3.984375 -3.421875 3.78125 -3.421875 3.59375 -3.421875 C 3.671875 -3.578125 3.71875 -3.78125 3.796875 -3.9375 Z M 3.796875 -3.9375 " />
      </g>
    </g>
  </g>
  <g fill="#ffcc29" fill-opacity="1">
    <g transform="translate(189.60602, 252.973827)">
      <g>
        <path d="M 1.359375 -6.984375 C 1.359375 -6.8125 1.34375 -6.625 1.328125 -6.453125 C 1.328125 -6.28125 1.359375 -6.125 1.359375 -5.9375 C 1.359375 -5.78125 1.359375 -5.609375 1.359375 -5.4375 C 1.359375 -5.265625 1.34375 -5.09375 1.34375 -4.921875 C 1.34375 -4.75 1.34375 -4.578125 1.34375 -4.390625 C 1.34375 -4.234375 1.3125 -4.046875 1.3125 -3.890625 C 1.3125 -3.71875 1.328125 -3.546875 1.328125 -3.375 C 1.328125 -3.203125 1.296875 -3.03125 1.3125 -2.875 C 1.3125 -2.6875 1.3125 -2.53125 1.3125 -2.359375 C 1.3125 -2.15625 1.3125 -2 1.328125 -1.859375 C 1.328125 -1.703125 1.34375 -1.53125 1.34375 -1.328125 C 1.34375 -1.15625 1.328125 -0.984375 1.328125 -0.8125 C 1.328125 -0.625 1.328125 -0.4375 1.328125 -0.296875 C 1.328125 -0.125 1.453125 0.015625 1.625 0.015625 C 1.765625 0.015625 1.9375 0 2.140625 0 C 2.3125 0 2.484375 0.03125 2.65625 0.03125 C 2.859375 0.03125 3.015625 0 3.1875 0 C 3.34375 0 3.5 0 3.6875 0.015625 C 3.859375 0.015625 4.015625 0.03125 4.171875 0.03125 C 4.34375 0.03125 4.53125 0.015625 4.6875 0.015625 C 4.859375 0.015625 5.015625 0.03125 5.171875 0.03125 C 5.359375 0.03125 5.53125 0.03125 5.6875 0.03125 C 5.84375 0.015625 6.015625 -0.015625 6.203125 -0.015625 C 6.359375 -0.015625 6.53125 0 6.6875 0 C 6.875 -0.015625 7 -0.015625 7.109375 -0.015625 C 7.25 -0.015625 7.375 -0.03125 7.5 -0.078125 C 7.609375 -0.09375 7.734375 -0.125 7.90625 -0.203125 C 8.015625 -0.25 8.09375 -0.375 8.109375 -0.53125 C 8.125 -0.671875 8.140625 -0.828125 8.140625 -0.9375 C 8.125 -1.078125 8.109375 -1.25 8.109375 -1.4375 C 8.109375 -1.640625 8.109375 -1.828125 7.984375 -1.890625 C 7.8125 -1.96875 7.625 -1.984375 7.4375 -2 C 7.25 -2.015625 7.046875 -2.015625 6.875 -2.015625 C 6.703125 -2.015625 6.546875 -2.03125 6.421875 -2.03125 C 6.234375 -2.015625 6.09375 -2.015625 5.9375 -2 C 5.78125 -2 5.640625 -2 5.46875 -1.984375 C 5.328125 -1.984375 5.171875 -1.9375 5 -1.96875 C 4.859375 -1.96875 4.703125 -1.984375 4.546875 -1.984375 C 4.390625 -1.984375 4.25 -1.9375 4.109375 -1.9375 C 3.9375 -1.9375 3.78125 -1.984375 3.65625 -2 C 3.390625 -2 3.34375 -1.8125 3.21875 -2 C 3.046875 -2.21875 3.234375 -2.234375 3.25 -2.546875 C 3.265625 -2.71875 3.234375 -2.90625 3.25 -3.109375 C 3.25 -3.3125 3.265625 -3.484375 3.265625 -3.671875 C 3.296875 -3.859375 3.265625 -4 3.265625 -4.140625 C 3.265625 -4.3125 3.328125 -4.46875 3.328125 -4.609375 C 3.328125 -4.78125 3.296875 -4.921875 3.296875 -5.0625 C 3.296875 -5.234375 3.328125 -5.375 3.328125 -5.53125 C 3.34375 -5.6875 3.34375 -5.828125 3.359375 -6 C 3.359375 -6.140625 3.34375 -6.28125 3.34375 -6.453125 C 3.359375 -6.59375 3.359375 -6.765625 3.359375 -6.921875 C 3.375 -7.0625 3.375 -7.21875 3.375 -7.390625 C 3.375 -7.546875 3.359375 -7.6875 3.359375 -7.875 C 3.359375 -8.015625 3.390625 -8.15625 3.390625 -8.296875 C 3.390625 -8.453125 3.390625 -8.59375 3.421875 -8.734375 C 3.421875 -8.890625 3.359375 -9.03125 3.359375 -9.171875 C 3.359375 -9.328125 3.25 -9.40625 3.109375 -9.46875 C 2.984375 -9.515625 2.859375 -9.578125 2.703125 -9.59375 C 2.53125 -9.609375 2.359375 -9.578125 2.265625 -9.5625 C 2.140625 -9.546875 1.90625 -9.578125 1.703125 -9.5 C 1.53125 -9.46875 1.40625 -9.375 1.375 -9.125 C 1.375 -8.953125 1.359375 -8.765625 1.359375 -8.578125 C 1.359375 -8.390625 1.359375 -8.21875 1.375 -8.03125 C 1.375 -7.828125 1.359375 -7.65625 1.34375 -7.484375 C 1.34375 -7.34375 1.359375 -7.15625 1.359375 -6.984375 Z M 1.359375 -6.984375 " />
      </g>
    </g>
  </g>
  <g fill="#ffcc29" fill-opacity="1">
    <g transform="translate(199.178951, 252.973827)">
      <g>
        <path d="M 5.9375 -7.5625 C 6.109375 -7.5625 6.25 -7.546875 6.390625 -7.546875 C 6.5625 -7.546875 6.703125 -7.5625 6.84375 -7.5625 C 7.03125 -7.578125 7.171875 -7.578125 7.28125 -7.578125 C 7.484375 -7.609375 7.59375 -7.671875 7.6875 -7.734375 C 7.78125 -7.828125 7.828125 -7.9375 7.84375 -8.140625 C 7.875 -8.265625 7.828125 -8.40625 7.828125 -8.578125 C 7.828125 -8.78125 7.84375 -8.9375 7.828125 -9.0625 C 7.78125 -9.25 7.671875 -9.34375 7.515625 -9.40625 C 7.421875 -9.484375 7.265625 -9.5 7.0625 -9.5 C 6.90625 -9.5 6.734375 -9.515625 6.578125 -9.515625 C 6.421875 -9.515625 6.25 -9.5625 6.09375 -9.5625 C 5.9375 -9.5625 5.78125 -9.5625 5.609375 -9.5625 C 5.453125 -9.5625 5.28125 -9.5625 5.125 -9.5625 C 4.953125 -9.578125 4.8125 -9.578125 4.65625 -9.578125 C 4.484375 -9.578125 4.328125 -9.578125 4.15625 -9.578125 C 4 -9.578125 3.828125 -9.578125 3.671875 -9.578125 C 3.5 -9.578125 3.359375 -9.546875 3.203125 -9.5625 C 3.03125 -9.5625 2.875 -9.59375 2.703125 -9.59375 C 2.546875 -9.609375 2.375 -9.578125 2.21875 -9.578125 C 2.046875 -9.578125 1.890625 -9.609375 1.71875 -9.609375 C 1.5625 -9.609375 1.40625 -9.609375 1.234375 -9.609375 C 1.078125 -9.609375 0.875 -9.609375 0.765625 -9.515625 C 0.65625 -9.40625 0.578125 -9.28125 0.546875 -9.140625 C 0.484375 -9 0.46875 -8.828125 0.484375 -8.703125 C 0.484375 -8.515625 0.46875 -8.359375 0.484375 -8.203125 C 0.515625 -8.03125 0.546875 -7.875 0.6875 -7.734375 C 0.796875 -7.65625 0.96875 -7.65625 1.125 -7.625 C 1.265625 -7.625 1.4375 -7.59375 1.578125 -7.578125 C 1.796875 -7.578125 2 -7.578125 2.1875 -7.5625 C 2.421875 -7.546875 2.609375 -7.5 2.78125 -7.484375 C 2.984375 -7.46875 3.109375 -7.328125 3.125 -7.125 C 3.125 -7 3.140625 -6.84375 3.140625 -6.6875 C 3.140625 -6.5625 3.140625 -6.421875 3.140625 -6.265625 C 3.140625 -6.125 3.15625 -5.984375 3.15625 -5.828125 C 3.15625 -5.671875 3.15625 -5.484375 3.15625 -5.34375 C 3.15625 -5.15625 3.140625 -5 3.140625 -4.828125 C 3.140625 -4.671875 3.140625 -4.484375 3.140625 -4.34375 C 3.140625 -4.15625 3.15625 -4 3.15625 -3.828125 C 3.15625 -3.671875 3.140625 -3.5 3.140625 -3.34375 C 3.140625 -3.1875 3.125 -3.015625 3.140625 -2.828125 C 3.140625 -2.671875 3.140625 -2.5 3.15625 -2.34375 C 3.15625 -2.1875 3.140625 -2.015625 3.15625 -1.828125 C 3.15625 -1.6875 3.140625 -1.515625 3.140625 -1.34375 C 3.140625 -1.1875 3.140625 -1.015625 3.140625 -0.828125 C 3.15625 -0.578125 3.203125 -0.421875 3.25 -0.296875 C 3.328125 -0.078125 3.453125 -0.03125 3.671875 -0.015625 C 3.8125 -0.015625 4 0 4.21875 -0.015625 C 4.453125 -0.015625 4.609375 -0.03125 4.75 -0.078125 C 4.984375 -0.109375 5.09375 -0.1875 5.140625 -0.34375 C 5.171875 -0.46875 5.15625 -0.65625 5.15625 -0.875 C 5.15625 -1.046875 5.171875 -1.203125 5.15625 -1.328125 C 5.15625 -1.53125 5.140625 -1.65625 5.140625 -1.78125 C 5.140625 -1.9375 5.203125 -2.078125 5.171875 -2.234375 C 5.171875 -2.359375 5.171875 -2.484375 5.171875 -2.6875 C 5.171875 -2.8125 5.15625 -2.96875 5.15625 -3.140625 C 5.15625 -3.3125 5.171875 -3.46875 5.15625 -3.640625 C 5.15625 -3.796875 5.125 -3.96875 5.125 -4.140625 C 5.125 -4.3125 5.109375 -4.46875 5.109375 -4.640625 C 5.109375 -4.796875 5.09375 -4.984375 5.09375 -5.140625 C 5.09375 -5.3125 5.09375 -5.46875 5.09375 -5.65625 C 5.09375 -5.8125 5.09375 -5.984375 5.0625 -6.140625 C 5.0625 -6.3125 5.109375 -6.484375 5.109375 -6.65625 C 5.109375 -6.8125 5.09375 -6.984375 5.0625 -7.15625 C 5.0625 -7.375 5.25 -7.546875 5.484375 -7.546875 C 5.65625 -7.546875 5.796875 -7.5625 5.9375 -7.5625 Z M 5.9375 -7.5625 " />
      </g>
    </g>
  </g>
  <g fill="#ffcc29" fill-opacity="1">
    <g transform="translate(208.443086, 252.973827)">
      <g>
        <path d="M 3.96875 -7.21875 C 3.78125 -7.421875 3.609375 -7.59375 3.546875 -7.671875 C 3.453125 -7.765625 3.34375 -7.875 3.265625 -7.984375 C 3.203125 -8.109375 3.125 -8.21875 3.046875 -8.34375 C 2.984375 -8.46875 2.921875 -8.609375 2.890625 -8.734375 C 2.8125 -8.921875 2.71875 -9.0625 2.65625 -9.1875 C 2.53125 -9.375 2.4375 -9.484375 2.3125 -9.546875 C 2.15625 -9.609375 2 -9.609375 1.796875 -9.609375 C 1.65625 -9.609375 1.484375 -9.609375 1.296875 -9.609375 C 1.078125 -9.609375 0.859375 -9.609375 0.6875 -9.59375 C 0.46875 -9.546875 0.34375 -9.4375 0.4375 -9.15625 C 0.46875 -9.0625 0.546875 -8.921875 0.65625 -8.765625 C 0.734375 -8.625 0.796875 -8.484375 0.890625 -8.359375 C 0.96875 -8.234375 1.09375 -8.125 1.1875 -8.015625 C 1.296875 -7.84375 1.359375 -7.703125 1.421875 -7.625 C 1.515625 -7.515625 1.625 -7.375 1.71875 -7.21875 C 1.8125 -7.09375 1.90625 -6.921875 2.015625 -6.78125 C 2.109375 -6.625 2.21875 -6.5 2.328125 -6.359375 C 2.4375 -6.21875 2.53125 -6.09375 2.640625 -5.9375 C 2.75 -5.796875 2.8125 -5.640625 2.921875 -5.5 C 3.015625 -5.359375 3.140625 -5.21875 3.21875 -5.09375 C 3.3125 -4.953125 3.359375 -4.796875 3.390625 -4.609375 C 3.4375 -4.4375 3.421875 -4.25 3.421875 -4.125 C 3.421875 -3.796875 3.453125 -3.71875 3.453125 -3.640625 C 3.453125 -3.546875 3.46875 -3.4375 3.453125 -3.125 C 3.4375 -2.96875 3.421875 -2.796875 3.390625 -2.59375 C 3.375 -2.4375 3.359375 -2.25 3.359375 -2.078125 C 3.34375 -1.90625 3.359375 -1.71875 3.34375 -1.546875 C 3.34375 -1.359375 3.359375 -1.1875 3.359375 -1.015625 C 3.359375 -0.8125 3.34375 -0.65625 3.34375 -0.484375 C 3.359375 -0.328125 3.421875 -0.1875 3.546875 -0.109375 C 3.65625 -0.046875 3.796875 -0.015625 3.9375 0 C 4.09375 0.015625 4.234375 0.03125 4.375 0.03125 C 4.53125 0.03125 4.6875 0 4.859375 -0.015625 C 5.03125 -0.03125 5.203125 -0.046875 5.328125 -0.125 C 5.484375 -0.203125 5.5625 -0.328125 5.5625 -0.484375 C 5.546875 -0.671875 5.5625 -0.8125 5.5625 -0.984375 C 5.546875 -1.109375 5.546875 -1.25 5.546875 -1.453125 C 5.546875 -1.578125 5.5625 -1.75 5.5625 -1.921875 C 5.5625 -2.078125 5.578125 -2.234375 5.59375 -2.421875 C 5.59375 -2.578125 5.59375 -2.765625 5.578125 -2.9375 C 5.5625 -3.109375 5.5 -3.296875 5.484375 -3.453125 C 5.46875 -3.65625 5.453125 -3.828125 5.453125 -3.984375 C 5.453125 -4.109375 5.5 -4.25 5.578125 -4.421875 C 5.65625 -4.546875 5.765625 -4.671875 5.84375 -4.796875 C 5.9375 -4.921875 6.03125 -5.046875 6.140625 -5.171875 C 6.234375 -5.28125 6.34375 -5.421875 6.4375 -5.546875 C 6.546875 -5.65625 6.609375 -5.796875 6.703125 -5.921875 C 6.765625 -6 6.90625 -6.140625 7.03125 -6.34375 C 7.109375 -6.46875 7.21875 -6.609375 7.328125 -6.78125 C 7.390625 -6.921875 7.484375 -7.09375 7.59375 -7.234375 C 7.6875 -7.375 7.734375 -7.5625 7.828125 -7.703125 C 7.921875 -7.84375 8.015625 -8.015625 8.109375 -8.15625 C 8.21875 -8.296875 8.296875 -8.453125 8.390625 -8.59375 C 8.515625 -8.796875 8.625 -8.9375 8.6875 -9.015625 C 8.8125 -9.21875 8.828125 -9.34375 8.796875 -9.4375 C 8.734375 -9.515625 8.625 -9.59375 8.40625 -9.625 C 8.28125 -9.625 8.125 -9.609375 7.9375 -9.609375 C 7.765625 -9.609375 7.59375 -9.609375 7.46875 -9.609375 C 7.25 -9.625 7.109375 -9.6875 7 -9.671875 C 6.84375 -9.65625 6.78125 -9.5625 6.671875 -9.359375 C 6.59375 -9.25 6.546875 -9.125 6.453125 -8.9375 C 6.375 -8.8125 6.265625 -8.671875 6.15625 -8.484375 C 6.0625 -8.359375 5.9375 -8.21875 5.828125 -8.046875 C 5.75 -7.90625 5.640625 -7.765625 5.546875 -7.609375 C 5.4375 -7.453125 5.359375 -7.28125 5.265625 -7.140625 C 5.171875 -6.984375 5.046875 -6.828125 4.953125 -6.6875 C 4.875 -6.546875 4.75 -6.484375 4.609375 -6.484375 C 4.5 -6.484375 4.375 -6.546875 4.28125 -6.703125 C 4.21875 -6.84375 4.09375 -7.046875 3.96875 -7.21875 Z M 3.96875 -7.21875 " />
      </g>
    </g>
  </g>
</svg>